<svg xmlns="http://www.w3.org/2000/svg" viewBox="0 0 198.01 195.12"><defs><style>.cls-1{fill:none;stroke:#5b08c3;stroke-miterlimit:10;stroke-width:2px;}</style></defs><title>G_line</title><g id="图层_2" data-name="图层 2"><g id="图层_2-2" data-name="图层 2"><path class="cls-1" d="M186.13,36.5,171.88,50a108.85,108.85,0,0,0-33.69-22.94q-18.31-7.81-35.69-7.81A85.09,85.09,0,0,0,61.31,29.88,77.12,77.12,0,0,0,31,58.69,74.36,74.36,0,0,0,20.25,97.13a75.89,75.89,0,0,0,11.13,39.44,79,79,0,0,0,30.75,29.38,88.44,88.44,0,0,0,43,10.69q28.37,0,48-16t23.25-41.5H117.75V101.38H197q-.25,42.63-25.31,67.69t-67.06,25.06q-51,0-80.75-34.75A92.36,92.36,0,0,1,1,97.5,94.85,94.85,0,0,1,14.13,48.88a93.34,93.34,0,0,1,36-35.19Q73,1,101.88,1a115.08,115.08,0,0,1,44,8.44Q166.5,17.88,186.13,36.5Z"/></g></g></svg>