<svg xmlns="http://www.w3.org/2000/svg" viewBox="0 0 195.75 195.12"><defs><style>.cls-1{fill:none;stroke:#5b08c3;stroke-miterlimit:10;stroke-width:2px;}</style></defs><title>O_line</title><g id="图层_2" data-name="图层 2"><g id="图层_2-2" data-name="图层 2"><path class="cls-1" d="M96.69,1q41.77,0,69.92,27.88T194.75,97.5q0,40.38-28.08,68.5T98.19,194.13q-40.9,0-69-28T1,98.38A98,98,0,0,1,13.82,49.25,94.7,94.7,0,0,1,96.69,1Zm.81,17.88A75.75,75.75,0,0,0,58.81,29.51,76.49,76.49,0,0,0,30.27,58.16,79.66,79.66,0,0,0,20,98.31q0,32.78,22.72,55.36T97.5,176.25a78.66,78.66,0,0,0,39.63-10.38,74.34,74.34,0,0,0,28.42-28.4,79.8,79.8,0,0,0,10.2-40,77.84,77.84,0,0,0-10.2-39.59,76.22,76.22,0,0,0-28.73-28.33A77.75,77.75,0,0,0,97.5,18.88Z"/></g></g></svg>