<svg xmlns="http://www.w3.org/2000/svg" viewBox="0 0 195.5 205"><defs><style>.cls-1{fill:none;stroke:#5b08c3;stroke-miterlimit:10;stroke-width:2px;}</style></defs><title>Q_line</title><g id="图层_2" data-name="图层 2"><g id="图层_2-2" data-name="图层 2"><path class="cls-1" d="M162.85,169.52,190.13,204H167.5l-18.72-23.77q-22.53,13.9-50.75,13.9-40.83,0-68.93-28T1,98.38A98,98,0,0,1,13.87,49.19a93,93,0,0,1,35-35.44A95.89,95.89,0,0,1,97.56,1q40.85,0,68.89,27.94t28,68.69a96.2,96.2,0,0,1-7.69,38.88Q179.13,154.13,162.85,169.52Zm-11.37-14.38q24-23.4,24-57.68a78,78,0,0,0-10.19-39.61,76.17,76.17,0,0,0-28.69-28.34,76.79,76.79,0,0,0-77.87-.06,75.81,75.81,0,0,0-28.5,28.65A80.09,80.09,0,0,0,20,98.31q0,32.78,22.63,55.36t54.63,22.58a77.66,77.66,0,0,0,40-10.64l-40.95-52h22.3Z"/></g></g></svg>