<svg xmlns="http://www.w3.org/2000/svg" viewBox="0 0 109.96 195.12"><defs><style>.cls-1{fill:none;stroke:#5b08c3;stroke-miterlimit:10;stroke-width:2px;}</style></defs><title>S_line</title><g id="图层_2" data-name="图层 2"><g id="图层_2-2" data-name="图层 2"><path class="cls-1" d="M1.34,155.25,17,145.88q16.5,30.38,38.13,30.38a36.52,36.52,0,0,0,17.37-4.31,30.52,30.52,0,0,0,12.38-11.56A29.93,29.93,0,0,0,89.09,145q0-9.25-6.25-18.12-8.62-12.25-31.5-29.5T22.71,72.25Q13,59.25,13,44.13a42.67,42.67,0,0,1,5.75-21.87A41,41,0,0,1,34.9,6.69,46.66,46.66,0,0,1,57.59,1,48.37,48.37,0,0,1,81.9,7.44q11.31,6.44,23.94,23.69l-15,11.38Q80.46,28.75,73.15,24.38A30.48,30.48,0,0,0,57.21,20Q46.09,20,39,26.75A22.09,22.09,0,0,0,32,43.38,28.31,28.31,0,0,0,34.46,55q2.5,5.63,9.13,12.25,3.62,3.5,23.75,18.38Q91.21,103.25,100.09,117T109,144.63q0,20-15.19,34.75T56.84,194.13a54.19,54.19,0,0,1-30.38-8.94Q12.84,176.25,1.34,155.25Z"/></g></g></svg>