<svg xmlns="http://www.w3.org/2000/svg" viewBox="0 0 123.75 190.5"><defs><style>.cls-1{fill:none;stroke:#5b08c3;stroke-miterlimit:10;stroke-width:2px;}</style></defs><title>U_line</title><g id="图层_2" data-name="图层 2"><g id="图层_2-2" data-name="图层 2"><path class="cls-1" d="M1,1H19.38V112q0,19.75.75,24.63,1.37,10.88,6.38,18.19t15.38,12.25A48.15,48.15,0,0,0,62.75,172a41.2,41.2,0,0,0,17.5-3.87,38.92,38.92,0,0,0,14-10.75,43.87,43.87,0,0,0,8.25-16.62q1.88-7,1.88-28.75V1h18.38V112q0,24.63-4.81,39.81T98.69,178.25Q84.25,189.5,63.75,189.5q-22.25,0-38.12-10.62T4.38,150.75Q1,140,1,112Z"/></g></g></svg>