<svg xmlns="http://www.w3.org/2000/svg" viewBox="0 0 196 193.12"><defs><style>.cls-1{fill:#e8d6ff;}</style></defs><title>G_fill</title><g id="图层_2" data-name="图层 2"><g id="图层_1-2" data-name="图层 1"><path class="cls-1" d="M185.13,35.5,170.88,49a108.85,108.85,0,0,0-33.69-22.94q-18.31-7.81-35.69-7.81A85.09,85.09,0,0,0,60.31,28.88,77.12,77.12,0,0,0,30,57.69,74.36,74.36,0,0,0,19.25,96.13a75.89,75.89,0,0,0,11.13,39.44,79,79,0,0,0,30.75,29.38,88.44,88.44,0,0,0,43,10.69q28.37,0,48-16t23.25-41.5H116.75V100.38H196q-.25,42.63-25.31,67.69t-67.06,25.06q-51,0-80.75-34.75A92.36,92.36,0,0,1,0,96.5,94.85,94.85,0,0,1,13.13,47.88a93.34,93.34,0,0,1,36-35.19Q72,0,100.88,0a115.08,115.08,0,0,1,44,8.44Q165.5,16.88,185.13,35.5Z"/></g></g></svg>