<svg xmlns="http://www.w3.org/2000/svg" viewBox="0 0 193.75 193.12"><defs><style>.cls-1{fill:#e8d6ff;}</style></defs><title>O_fill</title><g id="图层_2" data-name="图层 2"><g id="图层_1-2" data-name="图层 1"><path class="cls-1" d="M95.69,0q41.77,0,69.92,27.88T193.75,96.5q0,40.38-28.08,68.5T97.19,193.13q-40.9,0-69-28T0,97.38A98,98,0,0,1,12.82,48.25,94.7,94.7,0,0,1,95.69,0Zm.81,17.88A75.75,75.75,0,0,0,57.81,28.51,76.49,76.49,0,0,0,29.27,57.16,79.66,79.66,0,0,0,19,97.31q0,32.78,22.72,55.36T96.5,175.25a78.66,78.66,0,0,0,39.63-10.38,74.34,74.34,0,0,0,28.42-28.4,79.8,79.8,0,0,0,10.2-40,77.84,77.84,0,0,0-10.2-39.59,76.22,76.22,0,0,0-28.73-28.33A77.75,77.75,0,0,0,96.5,17.88Z"/></g></g></svg>