<svg xmlns="http://www.w3.org/2000/svg" viewBox="0 0 193.5 203"><defs><style>.cls-1{fill:#e8d6ff;}</style></defs><title>Q_fill</title><g id="图层_2" data-name="图层 2"><g id="图层_1-2" data-name="图层 1"><path class="cls-1" d="M161.85,168.52,189.13,203H166.5l-18.72-23.77q-22.53,13.9-50.75,13.9-40.83,0-68.93-28T0,97.38A98,98,0,0,1,12.87,48.19a93,93,0,0,1,35-35.44A95.89,95.89,0,0,1,96.56,0q40.85,0,68.89,27.94t28,68.69a96.2,96.2,0,0,1-7.69,38.88Q178.13,153.13,161.85,168.52Zm-11.37-14.38q24-23.4,24-57.68a78,78,0,0,0-10.19-39.61,76.17,76.17,0,0,0-28.69-28.34,76.79,76.79,0,0,0-77.87-.06,75.81,75.81,0,0,0-28.5,28.65A80.09,80.09,0,0,0,19,97.31q0,32.78,22.63,55.36t54.63,22.58a77.66,77.66,0,0,0,40-10.64l-40.95-52h22.3Z"/></g></g></svg>