<svg xmlns="http://www.w3.org/2000/svg" viewBox="0 0 107.63 193.12"><defs><style>.cls-1{fill:#e8d6ff;}</style></defs><title>S_fill</title><g id="图层_2" data-name="图层 2"><g id="图层_1-2" data-name="图层 1"><path class="cls-1" d="M0,154.25l15.63-9.37q16.5,30.38,38.13,30.38a36.52,36.52,0,0,0,17.38-4.31A30.52,30.52,0,0,0,83.5,159.38,29.93,29.93,0,0,0,87.75,144q0-9.25-6.25-18.12Q72.88,113.63,50,96.38T21.38,71.25q-9.75-13-9.75-28.12a42.67,42.67,0,0,1,5.75-21.87A41,41,0,0,1,33.56,5.69,46.66,46.66,0,0,1,56.25,0,48.37,48.37,0,0,1,80.56,6.44q11.31,6.44,23.94,23.69L89.5,41.5Q79.12,27.75,71.81,23.38A30.48,30.48,0,0,0,55.88,19q-11.13,0-18.19,6.75a22.09,22.09,0,0,0-7.06,16.63A28.31,28.31,0,0,0,33.13,54q2.5,5.63,9.13,12.25Q45.87,69.75,66,84.63,89.87,102.25,98.75,116t8.88,27.63q0,20-15.19,34.75T55.5,193.13a54.19,54.19,0,0,1-30.37-8.94Q11.5,175.25,0,154.25Z"/></g></g></svg>