<svg xmlns="http://www.w3.org/2000/svg" viewBox="0 0 121.75 188.5"><defs><style>.cls-1{fill:#e8d6ff;}</style></defs><title>U_fill</title><g id="图层_2" data-name="图层 2"><g id="图层_1-2" data-name="图层 1"><path class="cls-1" d="M0,0H18.38V111q0,19.75.75,24.63,1.37,10.88,6.38,18.19t15.38,12.25A48.15,48.15,0,0,0,61.75,171a41.2,41.2,0,0,0,17.5-3.87,38.92,38.92,0,0,0,14-10.75,43.87,43.87,0,0,0,8.25-16.62q1.88-7,1.88-28.75V0h18.38V111q0,24.63-4.81,39.81T97.69,177.25Q83.25,188.5,62.75,188.5q-22.25,0-38.12-10.62T3.38,149.75Q0,139,0,111Z"/></g></g></svg>